<?xml version="1.0" encoding="utf-8"?>
<!-- Generator: Adobe Illustrator 28.3.0, SVG Export Plug-In . SVG Version: 6.00 Build 0)  -->
<svg version="1.1" id="Layer_1" xmlns="http://www.w3.org/2000/svg" xmlns:xlink="http://www.w3.org/1999/xlink" x="0px" y="0px"
	 viewBox="0 0 1920 1080" style="enable-background:new 0 0 1920 1080;" xml:space="preserve">
<style type="text/css">
	.st0{fill:#40403F;stroke:#000000;stroke-miterlimit:10;}
</style>
<rect x="-13.81" y="-16.7" class="st0" width="1963.54" height="1115.15"/>
<g>
	<g>
		<path d="M7.98,127.17c14.23-17.5,34.8-27.71,54.67-37.41c23.28-11.36,46.7-22.42,70.26-33.18s47.26-21.22,71.08-31.38
			c23.83-10.16,47.8-20.01,71.89-29.56c23.98-9.5,48.07-18.7,72.28-27.59c3.07-1.13,6.13-2.25,9.2-3.36c3-1.09,1.7-5.92-1.33-4.82
			c-24.55,8.93-48.99,18.17-73.31,27.72c-24.2,9.51-48.28,19.34-72.24,29.46C186.52,27.17,162.69,37.6,139,48.34
			C115.2,59.12,91.54,70.21,68.03,81.6c-20.35,9.86-41.86,19.5-58,35.8c-1.96,1.98-3.82,4.06-5.58,6.23
			C2.43,126.11,5.95,129.66,7.98,127.17L7.98,127.17z"/>
	</g>
</g>
<g>
	<g>
		<path d="M-12.55,371.91c70.43-37.57,140.87-75.14,210.97-113.32c70.09-38.18,139.85-76.98,208.92-117
			c64.52-37.39,128.34-75.95,192.65-113.7c63.95-37.53,128.4-74.28,194.4-108.1c66.13-33.89,133.84-64.86,203.63-90.47
			c8.58-3.15,17.19-6.21,25.82-9.2c3.02-1.05,1.72-5.88-1.33-4.82c-69.78,24.15-137.56,53.73-203.67,86.56
			c-66.67,33.11-131.67,69.46-196,106.88c-64.18,37.33-127.72,75.75-191.8,113.26c-68.82,40.28-138.38,79.31-208.31,117.62
			C152.41,278.13,81.72,315.95,11,353.68c-8.69,4.64-17.38,9.27-26.07,13.91C-17.92,369.11-15.39,373.42-12.55,371.91L-12.55,371.91
			z"/>
	</g>
</g>
<g>
	<g>
		<path d="M-6.79,619.28c84.66-35.71,164.16-82.13,241.13-132.06c78.63-51.02,155.15-105.21,233.2-157.11
			c80.66-53.63,162.22-105.91,244.63-156.8c82.08-50.68,165-100,248.73-147.91s168.25-94.42,253.54-139.5
			c10.53-5.57,21.07-11.11,31.62-16.63c2.85-1.49,0.33-5.81-2.52-4.32c-85.11,44.56-169.49,90.51-253.07,137.86
			c-83.93,47.55-167.06,96.51-249.36,146.84c-81.95,50.13-163.07,101.62-243.31,154.45c-78.73,51.84-155.93,105.93-234.45,158.09
			c-76.55,50.85-155.08,99.32-238.67,137.81C13.81,605,2.88,609.82-8.12,614.46C-11.04,615.69-9.76,620.53-6.79,619.28L-6.79,619.28
			z"/>
	</g>
</g>
<g>
	<g>
		<path d="M-21.52,846.33c108.7-51,207.16-120.63,306.01-188.11c104.6-71.41,209.07-143.02,313.39-214.84
			c103.89-71.52,207.64-143.24,311.25-215.16c104.04-72.22,207.95-144.64,311.71-217.27s207.38-145.45,310.86-218.48
			c12.88-9.09,25.76-18.18,38.64-27.28c2.61-1.84,0.11-6.18-2.52-4.32c-103.44,73.08-207.03,145.96-310.75,218.63
			c-103.73,72.68-207.59,145.15-311.6,217.42c-103.58,71.97-207.29,143.74-311.15,215.31c-104.29,71.87-208.72,143.53-313.28,214.99
			c-99.54,68.03-198.06,139.43-305.27,195.13c-13.13,6.82-26.4,13.37-39.79,19.65C-26.95,843.38-24.42,847.69-21.52,846.33
			L-21.52,846.33z"/>
	</g>
</g>
<g>
	<g>
		<path d="M-6.77,1061.96c109.3-76.95,219.13-153.17,329.47-228.62c109.91-75.16,220.33-149.56,331.25-223.21
			c111.36-73.94,223.23-147.12,335.59-219.53c103.44-66.66,207.81-132.02,308.82-202.35c99.1-69,195.11-143.03,281.86-227.23
			c10.7-10.38,21.24-20.92,31.64-31.59c2.25-2.31-1.28-5.85-3.54-3.54c-85.09,87.32-180.29,163.98-279.41,234.73
			c-99.13,70.76-202.12,135.85-304.57,201.65c-112.03,71.95-223.57,144.67-334.6,218.15c-110.6,73.18-220.7,147.12-330.29,221.8
			c-110.03,74.98-219.55,150.7-328.54,227.17c-13.41,9.41-26.81,18.83-40.2,28.25C-11.9,1059.48-9.41,1063.82-6.77,1061.96
			L-6.77,1061.96z"/>
	</g>
</g>
<g>
	<g>
		<path d="M375.1,1116.53c95.95-67.94,190.99-137.15,285.09-207.63c93.57-70.08,186.2-141.42,277.87-213.97
			c92.19-72.96,183.39-147.16,273.59-222.57s179.38-152.02,267.52-229.82c88.14-77.8,175.24-156.78,261.26-236.92
			c10.55-9.83,21.09-19.68,31.61-29.54c2.35-2.21-1.19-5.74-3.54-3.54c-85.45,80.11-171.95,159.1-259.5,236.91
			c-87.55,77.81-176.14,154.44-265.74,229.88s-180.2,149.68-271.79,222.7c-92.44,73.7-185.87,146.16-280.27,217.34
			c-93.52,70.52-187.98,139.79-283.36,207.78c-11.74,8.37-23.5,16.72-35.27,25.06C369.98,1114.05,372.47,1118.39,375.1,1116.53
			L375.1,1116.53z"/>
	</g>
</g>
<g>
	<g>
		<path d="M805.01,1090.16c86.22-44.35,157.62-110.97,229.58-174.77c73.59-65.25,150.14-127.01,228.09-186.97
			c77.98-59.99,157.23-118.29,236.09-177.1c78.08-58.23,155.81-116.98,231.48-178.33c75.86-61.5,149.66-125.66,219.25-194.21
			c8.59-8.46,17.11-16.99,25.57-25.58c2.26-2.29-1.27-5.83-3.54-3.54c-68.55,69.62-141.53,134.73-216.86,196.92
			c-75.56,62.39-153.46,121.88-231.89,180.6c-78.2,58.55-156.97,116.34-234.68,175.54c-77.51,59.05-154.01,119.49-227.64,183.34
			c-73.21,63.47-143.01,132.55-226.71,182.47c-10.24,6.11-20.66,11.88-31.26,17.33C799.63,1087.31,802.15,1091.63,805.01,1090.16
			L805.01,1090.16z"/>
	</g>
</g>
<g>
	<g>
		<path d="M1218.91,1077.37c47.66-38.67,95.42-77.2,143.3-115.6c47.88-38.4,95.86-76.65,143.96-114.77s96.3-76.1,144.61-113.95
			c48.12-37.69,96.35-75.25,144.69-112.67c48.75-37.74,97.6-75.33,146.56-112.78c6-4.59,11.99-9.17,17.99-13.75
			c2.52-1.93,0.04-6.27-2.52-4.32c-48.75,37.24-97.39,74.61-145.92,112.12c-48.56,37.53-97.01,75.2-145.35,113.01
			c-48.53,37.96-96.96,76.06-145.27,114.29c-48.12,38.09-96.14,76.31-144.04,114.67c-48.09,38.51-96.08,77.16-143.95,115.95
			c-5.87,4.75-11.73,9.51-17.59,14.26C1212.87,1075.86,1216.43,1079.38,1218.91,1077.37L1218.91,1077.37z"/>
	</g>
</g>
<g>
	<g>
		<path d="M1587.32,1086.5c19.59-27.8,42.11-53.51,67.08-76.59c24.62-22.76,51.61-42.76,76.97-64.65
			c12.6-10.88,24.82-22.25,36.03-34.56c11.2-12.29,21.39-25.46,31.28-38.81c19.93-26.91,38.76-54.85,62.43-78.71
			c23.91-24.1,51.63-43.93,79.52-63.11c3.45-2.37,6.9-4.73,10.35-7.1c2.64-1.81,0.14-6.14-2.52-4.32
			c-28.21,19.3-56.57,38.72-81.65,62.05c-24.71,22.99-44.42,50.23-64.2,77.41c-9.85,13.54-19.81,27.02-30.63,39.8
			c-10.91,12.88-22.83,24.81-35.38,36.09c-25,22.46-52.09,42.46-77.27,64.71c-25.53,22.57-48.66,47.74-68.98,75.1
			c-2.49,3.36-4.94,6.74-7.35,10.16C1581.15,1086.61,1585.48,1089.11,1587.32,1086.5L1587.32,1086.5z"/>
	</g>
</g>
<g>
	<g>
		<path d="M1761.75,1095.51c13.49-12.62,26.99-25.24,40.48-37.86c13.43-12.56,26.85-25.11,40.28-37.67
			c11.9-11.13,23.79-22.26,35.34-33.74c11.53-11.46,22.73-23.26,33.21-35.69c10.43-12.37,20.16-25.36,28.68-39.11
			c1.08-1.74,2.14-3.49,3.18-5.26c1.64-2.78-2.68-5.3-4.32-2.52c-8.16,13.83-17.53,26.91-27.72,39.31
			c-10.26,12.5-21.29,24.36-32.68,35.83c-11.43,11.51-23.22,22.65-35.06,33.74c-13.23,12.39-26.47,24.76-39.71,37.14
			c-13.37,12.51-26.75,25.01-40.12,37.52c-1.7,1.59-3.4,3.18-5.11,4.78C1755.86,1094.17,1759.4,1097.7,1761.75,1095.51
			L1761.75,1095.51z"/>
	</g>
</g>
</svg>
