<?xml version="1.0" encoding="utf-8"?>
<!-- Generator: Adobe Illustrator 28.3.0, SVG Export Plug-In . SVG Version: 6.00 Build 0)  -->
<svg version="1.1" id="Layer_1" xmlns="http://www.w3.org/2000/svg" xmlns:xlink="http://www.w3.org/1999/xlink" x="0px" y="0px"
	 viewBox="0 0 200 200" style="enable-background:new 0 0 200 200;" xml:space="preserve">
<style type="text/css">
	.st0{fill:#FBB040;}
	.st1{fill:#FEE740;}
</style>
<g>
	<path class="st0" d="M94.49,18.34c-4.34,0.89-6.25,0-10.68,0.09c-4.24,0.09-8.62-0.17-12.6,1.31l-4.3,0.11
		C52,33.1,44.52,52.92,41.07,72.57c-4.4,25.06-3.05,51.12,3.91,75.59c1.44,5.07,3.14,10.12,5.88,14.62
		c1.98,3.26,4.48,6.19,7.14,8.93c3.48,3.61,7.38,7.01,12.1,8.72c3.69,1.33,7.66,1.56,11.58,1.77c7.89,0.43,15.78,0.85,23.66,1.28"/>
	<g>
		<path d="M93.82,15.93c-3.46,0.68-6.98-0.04-10.47,0.01c-2.13,0.03-4.27,0-6.4,0.15c-1.12,0.08-2.25,0.22-3.36,0.42
			c-0.44,0.08-0.89,0.17-1.32,0.28c-0.27,0.07-0.6,0.14-0.87,0.24c-0.13,0.05-0.65,0.3-0.21,0.2c-1.98,0.46-4.35-0.58-6.05,0.84
			c-2.83,2.37-5.36,5.23-7.64,8.12c-9.49,12.01-14.99,26.66-18.05,41.55c-3.5,17.05-4.3,34.69-2.46,51.99
			c0.94,8.89,2.53,17.71,4.83,26.36c1.11,4.18,2.35,8.33,4.04,12.31c1.67,3.93,3.85,7.48,6.55,10.8
			c4.98,6.13,11.29,12.31,19.18,14.28c4.25,1.06,8.7,1.13,13.04,1.36c4.6,0.25,9.2,0.5,13.8,0.74c2.3,0.12,4.6,0.25,6.9,0.37
			c3.22,0.17,3.21-4.83,0-5c-7.64-0.41-15.28-0.82-22.92-1.24c-3.48-0.19-7-0.32-10.37-1.3c-2.96-0.86-5.65-2.5-8-4.47
			c-5.02-4.19-9.61-9.35-12.55-15.21c-3.11-6.2-4.79-13.2-6.32-19.93c-3.19-14.03-4.53-28.46-4.04-42.84
			c0.46-13.38,2.38-26.85,6.42-39.64c4.13-13.08,10.8-25.49,21.12-34.73c-0.59,0.24-1.18,0.49-1.77,0.73
			c1.3-0.03,2.59-0.04,3.89-0.1c0.98-0.04,1.86-0.39,2.81-0.63c1.48-0.37,2.97-0.52,4.49-0.59c2.98-0.14,6.03-0.21,9.01,0
			c2.75,0.2,5.32,0.26,8.05-0.28c1.33-0.26,2.08-1.84,1.75-3.08C96.52,16.29,95.15,15.67,93.82,15.93L93.82,15.93z"/>
	</g>
</g>
<g>
	<path class="st1" d="M92.17,20.07C76.62,31.57,62.86,46.86,58.04,65.6c-3.41,13.25-2.13,27.2-0.82,40.81
		c1.14,11.93,2.29,23.86,3.43,35.79c0.43,4.45,0.86,8.93,2.24,13.18c2.83,8.72,9.58,15.87,17.65,20.22
		c8.07,4.35,17.37,6.06,26.54,6.05c2.84,0,5.72-0.18,8.41-1.07c3.84-1.28,7.07-3.96,9.7-7.03c6.81-7.92,9.98-18.27,12.33-28.45
		c4.23-18.38,6.32-37.23,6.61-56.09c0.21-13.58-0.53-27.27-3.89-40.43c-1.1-4.3-2.5-8.59-4.89-12.34
		c-4.13-6.51-10.96-10.95-18.21-13.55c-7.25-2.61-14.98-3.55-22.64-4.36"/>
	<g>
		<path d="M90.91,17.91C80.86,25.37,71.67,34.1,64.78,44.61c-3.37,5.14-6.12,10.71-8.05,16.55c-2.24,6.82-3.18,14.02-3.35,21.17
			c-0.17,7.26,0.43,14.51,1.11,21.73c0.73,7.74,1.48,15.49,2.22,23.23c0.72,7.48,1.16,15.05,2.32,22.47
			c1.02,6.57,3.55,12.5,7.71,17.69c8.37,10.45,21.53,15.42,34.56,16.48c6.73,0.55,13.93,0.55,19.75-3.33
			c5.47-3.65,9.51-9.32,12.36-15.16c2.86-5.86,4.72-12.12,6.22-18.45c1.75-7.37,3.13-14.82,4.19-22.32
			c2.13-14.97,3.12-30.14,2.76-45.26c-0.18-7.57-0.8-15.13-2.07-22.6c-1.17-6.9-2.72-14.12-6.12-20.31
			c-6.57-11.96-20.15-17.2-32.94-19.28c-3.64-0.59-7.31-1.01-10.98-1.4c-1.34-0.14-2.5,1.25-2.5,2.5c0,1.47,1.15,2.36,2.5,2.5
			c12.33,1.3,25.96,3.16,35.17,12.34c4.56,4.54,6.73,10.42,8.27,16.55c1.69,6.76,2.69,13.66,3.21,20.6
			c1.07,14.3,0.51,28.8-0.93,43.05c-0.72,7.06-1.72,14.08-3.03,21.05c-1.23,6.58-2.62,13.17-4.62,19.56
			c-3.3,10.54-9.81,24.16-22.35,25.08c-12.19,0.89-25.75-2.07-35.16-10.2c-4.13-3.57-7.59-8.06-9.45-13.23
			c-2.33-6.47-2.48-13.6-3.13-20.38c-0.7-7.29-1.4-14.58-2.1-21.87c-0.69-7.19-1.48-14.38-1.84-21.6
			c-0.34-6.81-0.32-13.72,0.83-20.46c1.01-5.88,2.85-11.57,5.52-16.9c5.23-10.45,13.08-19.34,21.91-26.9
			c2.15-1.84,4.36-3.6,6.64-5.28c1.08-0.8,1.63-2.16,0.9-3.42C93.71,17.74,92,17.1,90.91,17.91L90.91,17.91z"/>
	</g>
</g>
<g>
	<g>
		<path d="M116.99,74.66c-4.84-2.14-9.99-2.86-15.25-2.99c-4.48-0.11-9.22-0.18-13.56,1.12c-4.64,1.39-8.16,4.47-9.89,9.03
			c-1.66,4.38-2.02,10.34,0.73,14.37c2.84,4.16,7.93,5.85,12.63,6.91c5,1.13,10.15,1.55,15.09,2.97c4.01,1.15,8.26,3.04,10.72,6.57
			c2.13,3.05,3.07,7.1,1.01,10.43c-2.13,3.45-6.54,4.8-10.29,5.51c-5.04,0.95-10.65,1.16-15.47-0.83c-1.25-0.52-2.75,0.56-3.08,1.75
			c-0.39,1.44,0.49,2.56,1.75,3.08c4.67,1.93,9.95,1.89,14.89,1.31c4.05-0.48,8.2-1.39,11.7-3.58c3.63-2.27,6.12-5.79,6.59-10.08
			c0.48-4.46-1.49-8.97-4.45-12.22c-6.9-7.56-17.88-7.63-27.14-9.73c-3.92-0.89-9.34-2.19-10.59-6.62
			c-1.11-3.9,0.06-9.27,3.17-11.99c3.27-2.86,8.28-2.98,12.39-3.02c5.53-0.05,11.37,0.05,16.51,2.33c1.23,0.55,2.69,0.36,3.42-0.9
			C118.51,77.01,118.23,75.21,116.99,74.66L116.99,74.66z"/>
	</g>
</g>
<g>
	<g>
		<path d="M94.49,61.54c1.09,11.12,3.04,22.14,5.92,32.93c1.43,5.36,3.22,10.59,4.93,15.87c0.81,2.51,1.4,5,1.51,7.64
			c0.12,2.78-0.05,5.57-0.03,8.35c0.04,6.47,0.72,12.93,1.95,19.28c0.26,1.33,1.85,2.08,3.08,1.75c1.39-0.38,2-1.75,1.75-3.08
			c-1.05-5.44-1.64-10.95-1.75-16.49c-0.11-5.55,0.46-11.09-1-16.53c-1.42-5.26-3.43-10.35-4.91-15.6
			c-1.48-5.27-2.75-10.6-3.79-15.97c-1.17-6.01-2.05-12.07-2.65-18.16c-0.13-1.34-1.05-2.5-2.5-2.5
			C95.74,59.04,94.36,60.19,94.49,61.54L94.49,61.54z"/>
	</g>
</g>
</svg>
