<?xml version="1.0" encoding="UTF-8"?>
<svg id="Layer_1" data-name="Layer 1" xmlns="http://www.w3.org/2000/svg" version="1.1" viewBox="0 0 200 200">
  <defs>
    <style>
      .cls-1 {
        fill: #000;
      }

      .cls-1, .cls-2, .cls-3 {
        stroke-width: 0px;
      }

      .cls-2 {
        fill: #231f20;
      }

      .cls-3 {
        fill: #fff;
      }
    </style>
  </defs>
  <polygon class="cls-3" points="168.99 194.33 171.44 186.38 157.29 181.21 168.79 166.67 167.69 150.52 152.48 152.67 147.43 159.21 144.71 129.15 130.59 119.88 69.24 117.51 55.86 130.95 51.84 146.85 54.07 153.54 42.48 146.29 33.29 150.11 29.38 160.58 28.73 171.47 37.05 178.53 46.56 183.83 37.01 186.41 39.11 191.48 49.42 194.56 168.99 194.33"/>
  <path class="cls-2" d="M69.43,127.22c-1.13.17-2.29.36-3.41.58-1.07.19-2.34.26-3.16,1.05-.68.65-.87,1.63-1.04,2.53-.2,1.05-.28,2.12-.24,3.16.1,1.9.82,3.78,2.25,5.06s3.33,1.7,5.19,1.73c2.23.03,4.49-.35,6.66-.84,2.03-.45,4.09-.99,5.86-2.13,3.48-2.26,3.85-6.91.97-9.86-3.73-3.83-9.39-2.56-13.92-1.25-.77.22-1.09,1.28-.8,1.97.35.82,1.18,1.02,1.97.8,2.98-.85,6.44-1.86,9.39-.35,2.24,1.16,3.32,4.19,1.1,5.93-1.07.84-2.43,1.27-3.72,1.62-1.77.48-3.59.8-5.42,1.02-2.41.29-5.52.22-6.32-2.61-.39-1.4-.22-3,.14-4.37,0-.03.06-.29.11-.36-.22.26.07.08.19.09.46.03,1.07-.2,1.54-.28,1.02-.18,2.05-.35,3.07-.51,1.91-.3,1.52-3.27-.38-2.98h0Z"/>
  <path class="cls-2" d="M72.76,134.95c1.92-.25,1.53-3.22-.38-2.98s-1.53,3.22.38,2.98h0Z"/>
  <path class="cls-2" d="M129.68,128.61c-3.36-.99-7.5-.88-9.79,2.16-1.01,1.34-1.51,3.03-1.18,4.71.35,1.79,1.78,3.12,3.37,3.9,3.5,1.68,7.91,2.37,11.76,1.87,3.43-.44,6.97-2.5,6.98-6.38,0-2.07-1.29-3.64-3.13-4.49-2.25-1.04-4.65-1.61-7.12-1.87-.81-.09-1.48.81-1.47,1.54.03.9.73,1.38,1.54,1.47,1.58.17,3.17.55,4.67,1.11.91.34,2.25.77,2.46,1.85.42,2.27-2.07,3.46-3.89,3.74-2.93.47-6.1-.03-8.9-.91-1.94-.63-4.29-1.87-3.03-4.23,1.36-2.55,4.64-2.26,7-1.56,1.85.55,2.57-2.36.72-2.91h0Z"/>
  <path class="cls-2" d="M128.02,131.72l-.87,4.7c-.14.77.27,1.65,1.09,1.82.75.16,1.66-.27,1.82-1.09l.87-4.7c.14-.77-.27-1.65-1.09-1.82-.75-.16-1.66.27-1.82,1.09h0Z"/>
  <path class="cls-2" d="M69.05,130.34l2.13,5.78c.27.74,1.25,1.14,1.97.8.76-.36,1.1-1.17.8-1.97l-2.13-5.78c-.27-.74-1.25-1.14-1.97-.8-.76.36-1.1,1.17-.8,1.97h0Z"/>
  <path class="cls-1" d="M54.85,196.89c2.57.15,2.82-3.84.24-3.99s-2.82,3.84-.24,3.99h0Z"/>
  <path class="cls-1" d="M53.57,193.53c-4.8-.08-9.49-1.45-13.51-4.11-.43-.29-2.29-1.34-2.18-2.02.06-.37,1.7-.86,2.01-.97,2.24-.8,4.77-1.01,7.11-.55s3.57-2.04,1.76-3.56c-3.79-3.16-8.78-3.96-12.88-6.52s-5.53-6.65-5.47-11.14,1.37-8.95,4.05-12.46c1.23-1.6,2.91-3,4.9-3.48,2.49-.6,5,.23,7.15,1.49,4.71,2.75,9.37,7.21,10.85,12.6l3.45-1.75c-2.83-3.95-5.61-8.28-6.48-13.13-.74-4.09.3-8.14,1.8-11.93,1.02-2.56,2.23-5.07,3.53-7.49s2.93-4.91,5.27-6.54,5.31-2.34,8.13-2.78c3.23-.51,6.5-.76,9.75-.91,6.82-.3,13.65-.03,20.45.5s13.89,1.27,20.75,2.52c3.33.6,6.63,1.34,9.88,2.25,2.71.75,4.8,1.9,6.66,4.05,2.9,3.35,3.86,6.81,4.37,11.11.81,6.8.71,13.79.34,20.62-.13,2.29,3.09,2.87,3.89.76,1.2-3.17,3.55-5.87,6.51-7.52,2.65-1.48,7.2-3.01,9.86-.79,2.15,1.8,2.25,5.22,1.98,7.78-.39,3.61-1.85,7.27-3.61,10.43-2.19,3.93-5.07,7.36-8.57,10.19-1.32,1.06-.51,3.49,1.2,3.49,4.03.02,8.45.91,11.82,3.23,1.26.87,1.71,2.1.75,3.41-1.08,1.47-3.07,1.93-4.75,2.31-2.51.57-1.69,4.49.83,3.92s5.31-1.5,7.02-3.71,1.97-5.17.31-7.45c-1.55-2.11-4.32-3.26-6.69-4.13-2.88-1.04-5.97-1.57-9.03-1.58l1.2,3.49c7.01-5.68,12.73-14.55,13.54-23.7.34-3.87-.43-8.23-3.56-10.82-3.56-2.96-8.93-2.06-12.84-.29-4.49,2.02-8.04,5.86-9.77,10.45l3.89.76c.37-6.6.38-13.28-.22-19.87-.39-4.31-1.19-8.45-3.57-12.16-1.62-2.52-3.72-4.86-6.38-6.31-3.02-1.64-6.69-2.26-10.02-2.98-7.15-1.54-14.4-2.46-21.67-3.12s-14.59-1.11-21.89-.92c-3.74.1-7.49.34-11.21.8-3.16.38-6.35.97-9.26,2.33-5.87,2.76-8.76,8.69-11.35,14.3-2.33,5.03-4.08,10.4-3.43,16.01.7,5.98,4.14,11.3,7.57,16.08,1.16,1.63,3.97.12,3.45-1.75-1.61-5.85-5.88-10.48-10.73-13.93-2.61-1.86-5.7-3.4-8.96-3.53-2.83-.12-5.5.86-7.71,2.6-4.23,3.32-6.38,8.87-7.17,14.04s.03,11.09,3.63,15.17c4.32,4.91,11.36,5.25,16.22,9.32l1.76-3.56c-3.45-.68-6.85-.5-10.16.74-1.43.53-2.94,1.24-3.74,2.61-.93,1.6-.45,3.43.6,4.83,1.86,2.51,5.41,4.13,8.23,5.25,3.21,1.26,6.67,1.93,10.11,1.99,2.56.04,2.82-3.95.24-3.99h.02Z"/>
  <path class="cls-1" d="M57.71,196.63c2.55-.33,5.09.7,7.64.7,2.33,0,4.82-.57,6.45-2.36.95-1.05,1.5-2.32,1.83-3.7s.72-2.77.7-4.17c-.02-2.85-1.52-5.1-3.16-7.29-.65-.87-2.06-.85-2.82-.17-.87.77-.82,1.95-.17,2.82,1.13,1.51,2.27,3.07,2.15,4.94-.06,1.03-.32,2.07-.6,3.06-.11.41-.29.94-.45,1.23-.04.08-.45.64-.27.43-.13.15-.29.27-.44.4-.35.31.18-.05-.23.16-.18.09-.35.18-.54.27-.23.09-.25.11-.08.04-.1.03-.19.06-.3.08-.23.07-.47.11-.71.16-.2.04-.41.07-.62.08.34-.03-.24,0-.3.01-.49.01-.97-.02-1.46-.07-2.53-.25-4.91-.89-7.46-.55-1.07.14-1.76,1.38-1.54,2.37.24,1.13,1.3,1.68,2.37,1.54h0Z"/>
  <path class="cls-1" d="M165.69,193.68c-1.51-.34-2.92-.28-4.41.1-1.39.34-2.69.77-4.14.74-3.18-.06-6.38-.36-9.56-.55-1.49-.09-2.77,0-3.84-1.17-.85-.93-1.52-1.98-2.03-3.14-.96-2.19-.94-5.01.84-6.78s-.82-4.82-2.66-2.99c-2.38,2.36-3.27,5.72-2.6,8.99.61,3.01,2.64,6.69,5.43,8.19,1.69.91,3.73.84,5.59.96l5.85.35c1.73.1,3.47.27,5.19,0,1.59-.25,3.43-1.27,5.06-.9,1.05.24,2.16-.15,2.54-1.25.32-.94-.19-2.3-1.25-2.54h0Z"/>
  <path class="cls-1" d="M88.05,175.18c.47,2.28,1.53,4.35,2.57,6.43s2.07,4.3,3.2,6.39c1.06,1.96,2.66,2.45,4.77,2.24.3-.03.65-.04.95-.11.36-.08.29.15.24-.08.05.3-.92.97-1.19,1.15-3.44,2.25-7.99,2.42-11.96,2.16-1.84-.11-3.96-.43-5.2-1.95s-.31-3.26.06-5.01c.56-2.67-.49-4.72-2.22-6.7s-3.51-3.58-5.5-5.11-4.25,1.77-2.22,3.32,3.75,3.17,5.28,5.08c.63.79.98,1.48.79,2.5-.22,1.2-.72,2.32-.85,3.55-.55,5.34,4.94,7.93,9.4,8.27s9.62,0,13.69-2.25c2-1.11,3.95-2.78,3.83-5.28-.1-2.28-1.97-3.74-4.19-3.66-.45.02-1.85.37-2.13.12-.34-.31-.63-1.34-.85-1.78-.36-.71-.72-1.43-1.06-2.13-1.29-2.56-2.92-5.16-3.51-8-.52-2.52-4.44-1.7-3.92.83h0l.03.02Z"/>
  <path class="cls-1" d="M114.04,175.98c-2.3,4.99-4.6,9.98-6.9,14.97-.94,2.04-1.92,4.41-.65,6.55,1.11,1.89,3.63,2.72,5.65,3.23,4.33,1.11,8.88.77,13.02-.89,1.88-.76,3.95-1.87,5.36-3.34.9-.94,1.39-2.27.85-3.53-.47-1.1-1.5-1.82-2.49-2.44-1.1-.7-2.35-1.3-3.6-1.66.21.06.25.37.2.12-.04-.29-.02-.6-.02-.89,0-.63.07-1.27.16-1.89.36-2.3,1.44-4.58,2.99-6.32.72-.81.95-1.95.17-2.82-.66-.74-2.1-.98-2.82-.17-2.61,2.91-4.26,6.52-4.48,10.45-.13,2.09.1,4.2,2.2,5.18.77.36,1.6.58,2.35.98.51.28,1.56.78,1.76,1.29l-.21-1.02c.16-.16.18-.17.05-.02-.16.14-.33.28-.5.41-.29.23-.59.45-.9.65-.64.41-1.31.77-1.99,1.09-1.32.61-2.71,1.03-4.14,1.27-2.97.51-6.03.2-8.82-.92-.38-.15-1.2-.4-1.37-.82s.14-1.11.29-1.52c.7-1.88,1.66-3.69,2.5-5.51l5.13-11.13c.45-.98-.3-2.22-1.25-2.54-1.11-.38-2.09.27-2.54,1.25h0Z"/>
  <path class="cls-1" d="M62.55,155.44c20.14-1.23,40.33-1.62,60.5-1.15,5.73.13,11.45.34,17.18.6,2.57.12,2.57-3.88,0-4-20.15-.94-40.35-1.05-60.51-.3-5.73.21-11.45.5-17.17.84-2.56.16-2.58,4.16,0,4h0Z"/>
</svg>