<?xml version="1.0" encoding="UTF-8"?>
<svg id="Layer_1" data-name="Layer 1" xmlns="http://www.w3.org/2000/svg" version="1.1" viewBox="0 0 200 200">
  <defs>
    <style>
      .cls-1 {
        fill: #231f20;
      }

      .cls-1, .cls-2, .cls-3, .cls-4 {
        stroke-width: 0px;
      }

      .cls-2 {
        fill: #bcbec0;
      }

      .cls-3 {
        fill: #f1f2f2;
      }

      .cls-4 {
        fill: #fff;
      }
    </style>
  </defs>
  <g>
    <path class="cls-2" d="M81.72,198.78c-2.52-10.18-2.04-21.08,1.35-31,.73-2.13,1.66-4.31,3.43-5.7,2.35-1.84,5.73-1.86,8.52-.81s5.12,3.02,7.39,4.96c1.95,1.67,3.91,3.37,5.34,5.5,2.39,3.57,3.06,7.98,3.61,12.24.6,4.69,1.04,9.77-1.36,13.84"/>
    <path class="cls-1" d="M84.13,198.12c-1.39-5.71-1.81-11.58-1.29-17.43.25-2.81.75-5.58,1.46-8.31.64-2.46,1.28-5.35,2.84-7.42,3.18-4.21,9.03-.65,12.02,1.81,2.1,1.74,4.4,3.52,6.06,5.71,1.51,2,2.32,4.38,2.85,6.8.65,2.91,1.03,5.93,1.19,8.91s.01,5.81-1.44,8.38c-1.58,2.81,2.74,5.33,4.32,2.52,3.26-5.78,2.19-12.84,1.14-19.08-.51-3.06-1.35-6.14-2.94-8.83-1.69-2.84-4.18-5.01-6.66-7.12-4.7-4-10.91-7.99-17.19-4.9-2.91,1.43-4.48,4.29-5.56,7.21-1.2,3.23-2.02,6.63-2.55,10.03-1.19,7.69-.9,15.48.94,23.04.76,3.13,5.58,1.8,4.82-1.33h0Z"/>
  </g>
  <g>
    <path class="cls-3" d="M91.68,166.01c-11.96-.19-23.92-.39-35.88-.58-3.41-.06-7.29-.33-9.42-2.99-1.77-2.21-1.69-5.46-.63-8.09s2.91-4.85,4.55-7.16c3.07-4.34,5.52-9.26,9.67-12.59,2.67-2.14,5.89-3.48,9.15-4.54,12.69-4.11,26.45-4.22,39.57-1.82,7.89,1.44,15.8,3.86,22.25,8.62,6.46,4.77,11.31,12.19,11.46,20.22.03,1.44-.11,2.92-.71,4.22-.89,1.92-2.7,3.26-4.57,4.25-4.36,2.31-9.33,3.18-14.24,3.61-13.91,1.21-27.88-.88-41.69-2.96"/>
    <path class="cls-1" d="M91.68,163.51c-8.64-.14-17.28-.28-25.92-.42-4.03-.07-8.1.03-12.12-.24-2.51-.17-5.51-.83-6.06-3.69-.62-3.21,1.6-6.21,3.37-8.64,2.08-2.85,3.93-5.84,5.94-8.74s4.29-5.33,7.36-7.01c3.28-1.8,6.99-2.85,10.61-3.71,7.7-1.83,15.67-2.23,23.54-1.64,7.54.57,15.22,1.93,22.28,4.69,6.35,2.48,12.25,6.55,15.88,12.42,1.65,2.67,2.87,5.69,3.22,8.83.17,1.56.31,3.4-.35,4.87-.57,1.27-1.77,2.14-2.94,2.82-6.7,3.92-15.44,4.04-22.97,3.98-8.49-.06-16.95-1.06-25.34-2.28-2.12-.31-4.23-.62-6.35-.94-1.33-.2-2.69.33-3.08,1.75-.32,1.18.4,2.87,1.75,3.08,9.32,1.4,18.67,2.82,28.1,3.26,4.58.22,9.18.2,13.76-.18,4.31-.35,8.7-.95,12.76-2.53,3.78-1.47,7.63-3.6,9.13-7.6,1.35-3.61.57-8.21-.64-11.76-2.5-7.37-8-13.32-14.64-17.23-7.2-4.23-15.52-6.26-23.72-7.42-8.83-1.24-17.73-1.37-26.55.03-7.99,1.28-17.03,3.57-22.73,9.71-2.71,2.92-4.71,6.37-6.91,9.66s-5.09,6.4-6.14,10.35c-.99,3.75-.25,7.97,2.91,10.45,2.96,2.32,6.85,2.5,10.46,2.56,9.47.16,18.94.31,28.41.46l6.98.11c3.22.05,3.22-4.95,0-5h0Z"/>
  </g>
  <g>
    <path class="cls-4" d="M55.85,150.93c-1.33.48-2.65,1.36-3.06,2.71-.41,1.33.18,2.82,1.17,3.81s2.3,1.56,3.61,2.05c.94.35,1.91.67,2.91.67,1.8,0,3.49-1.1,4.48-2.6s1.35-3.35,1.3-5.15c-.01-.45-.06-.92-.32-1.28-.33-.46-.93-.62-1.49-.74-1.58-.34-3.18-.56-4.8-.65"/>
    <path class="cls-1" d="M55.18,148.52c-1.36.51-2.71,1.2-3.64,2.35-1.16,1.44-1.61,3.14-1.24,4.96.67,3.29,3.71,5,6.59,6.08,1.63.61,3.3.93,5.03.6,1.43-.28,2.75-1.05,3.82-2.03,2.22-2.03,3.17-5.31,3-8.25-.07-1.11-.36-2.19-1.17-3-.66-.67-1.56-1.04-2.47-1.24-1.79-.4-3.63-.63-5.46-.74-1.31-.08-2.56,1.21-2.5,2.5.06,1.42,1.1,2.42,2.5,2.5.55.03,1.1.08,1.65.14.13.01.25.03.38.04-.05,0-.33-.05-.03,0s.59.09.88.14c.51.09,1.03.18,1.53.31.09.02.18.06.28.08-.13-.03-.4-.27-.08-.02-.11-.09-.21-.16-.3-.27-.04-.05-.27-.49-.18-.25.11.29-.07-.2-.03-.19.01,0,.01.29.01.3,0,.26,0,.53-.01.79-.01.23-.03.45-.06.68.05-.48-.04.18-.08.34-.06.26-.12.51-.2.76-.05.15-.25.62-.07.24-.1.2-.19.4-.31.6-.08.15-.55.76-.2.36-.13.15-.26.3-.4.45-.07.07-.14.14-.22.21-.06.05-.39.32-.13.13.23-.17-.24.15-.32.2-.17.1-.67.32-.2.14-.22.08-.44.15-.66.21-.03,0-.27.08-.29.06-.02-.02.49-.02.17-.03-.22,0-.45,0-.67,0-.38,0,.29.1-.07-.01-.16-.05-.33-.07-.49-.12-.52-.14-1.02-.32-1.52-.51-.14-.06-.61-.25-.22-.08-.24-.1-.47-.21-.7-.33s-.45-.24-.67-.37c-.13-.08-.54-.37-.21-.11-.17-.13-.34-.28-.49-.44-.1-.1-.19-.2-.28-.31.15.18.13.2.02,0-.05-.09-.1-.2-.16-.28-.2-.25.08.32,0,.02-.03-.1-.06-.2-.1-.3-.16-.43-.04.22-.03-.05,0-.1,0-.21,0-.31,0-.32.06-.12-.01.05.04-.08.07-.2.09-.29.06-.28-.2.29-.02.08.05-.06.27-.41.07-.14s.07-.06.11-.11c.07-.07.14-.13.21-.2.21-.2.12-.06-.05.03.23-.13.44-.28.67-.4.09-.05.18-.08.26-.13.32-.17-.55.21.03,0,1.22-.46,2.19-1.71,1.75-3.08-.39-1.19-1.76-2.24-3.08-1.75h0Z"/>
  </g>
  <g>
    <path class="cls-4" d="M80.38,132.49c-.73,1.94-1.27,3.96-1.61,6.01-.11.65-.18,1.34.11,1.93.37.72,1.19,1.07,1.97,1.32,2.28.73,4.67,1.09,7.06,1.07,1.85-.02,3.86-.35,5.1-1.73.72-.81,1.08-1.88,1.26-2.95.3-1.69.18-3.53-.74-4.97s-2.8-2.35-4.42-1.79"/>
    <path class="cls-1" d="M77.97,131.82c-.53,1.42-.96,2.86-1.29,4.34-.38,1.73-.8,3.53-.08,5.22s2.38,2.41,4,2.89,3.33.78,5.02.93c3,.28,6.24.09,8.66-1.9s3.05-6.08,2.38-9.06c-.81-3.6-4.49-6.44-8.22-5.3-1.25.38-2.17,1.77-1.75,3.08s1.74,2.15,3.08,1.75c.14-.05.28-.09.43-.11-.3.04-.31.05-.01.04.3.02.29.02-.01-.01.14.03.29.07.43.12-.48-.14.28.16.41.24-.4-.25.26.25.35.35-.32-.35.21.35.27.48-.07-.21-.06-.18.04.11.05.16.1.32.14.49.04.17.07.33.1.5-.03-.24-.04-.2,0,.1,0,.35,0,.69,0,1.04-.03.31-.03.34,0,.11-.02.17-.05.33-.09.5-.07.33-.15.65-.26.97-.19.62.19-.24-.14.32-.08.15-.17.29-.26.42.13-.17.11-.16-.07.05-.22.19-.22.21-.01.05-.12.09-.25.17-.38.24-.13.08-.26.14-.4.21.25-.1.23-.1-.04,0-.3.08-.6.16-.9.23-.3.05-.31.05-.03.02-.16.02-.31.03-.47.05-.69.05-1.39.05-2.08.02-.38-.02-.76-.04-1.14-.08-.19-.02-.38-.04-.57-.06.19.03.13.02-.19-.03-.66-.11-1.32-.24-1.97-.4-.37-.09-.74-.2-1.11-.31-.09-.03-.99-.4-.52-.16-.13-.06-.26-.14-.39-.22.13.07.22.17.27.3.07.26.06.25-.02-.05.04.26.06.24.05-.07.03-.31.03-.33,0-.07.03-.19.06-.37.1-.56.07-.37.14-.74.22-1.11.32-1.48.76-2.92,1.29-4.34.46-1.23-.51-2.79-1.75-3.08-1.42-.32-2.59.43-3.08,1.75h0Z"/>
  </g>
  <g>
    <path class="cls-4" d="M114.67,147.78c-.86.24-1.22,1.24-1.4,2.11-.35,1.68-.49,3.41-.41,5.12.04.96.18,1.96.75,2.74.75,1.01,2.07,1.39,3.29,1.68,1.36.32,2.74.59,4.11.86,1.26.25,2.56.49,3.83.24,2.77-.54,4.67-3.53,4.43-6.35s-2.28-5.27-4.82-6.51-5.5-1.39-8.29-.97"/>
    <path class="cls-1" d="M114.01,145.37c-2.39.89-3.08,3.02-3.4,5.35-.29,2.11-.51,4.44.05,6.52.6,2.22,2.3,3.59,4.42,4.29,1.96.65,4.11,1,6.14,1.34,2.18.37,4.33.41,6.31-.71,1.52-.86,2.74-2.28,3.44-3.87,1.64-3.73.52-7.93-2.38-10.72-3.53-3.4-8.46-3.94-13.11-3.28-1.34.19-2.07,1.89-1.75,3.08.4,1.44,1.73,1.94,3.08,1.75-.31.04.16-.02.18-.02.19-.02.38-.04.57-.05.33-.03.66-.04.99-.05.38,0,.76,0,1.13.02.14,0,.28.02.42.03-.02,0,.78.1.46.05,1.43.23,2.45.56,3.57,1.28.09.06.66.49.38.25.25.21.49.43.72.66.11.12.22.24.33.36.04.04.3.36.07.06.2.25.37.53.53.81.06.1.41.87.26.48.1.26.18.53.25.8.04.16.07.31.1.47.07.4-.01-.34,0,.04,0,.34.01.67-.02,1,.05-.48-.05.16-.1.32-.04.14-.27.76-.09.35-.12.27-.26.54-.42.79-.08.13-.16.25-.25.37.21-.28.02-.05-.1.09-.18.18-.36.37-.56.52.37-.29-.27.13-.41.2-.11.06-.42.13,0,0-.14.04-.28.09-.42.13-.23.06-.35.06-.73.06-1.38,0-2.98-.44-4.52-.77-.68-.14-1.36-.29-2.04-.46-.31-.08-.62-.17-.92-.28.48.17-.6-.34-.4-.2s-.08-.08-.1-.1c-.18-.19-.21-.23-.11-.12.1.12.08.06-.07-.17.02.06.1.27.02,0-.06-.21-.11-.42-.14-.64.05.37,0-.07,0-.12,0-.24-.02-.48-.03-.72-.01-.45,0-.91.01-1.36.04-.92.1-1.53.26-2.34.06-.32.13-.64.23-.96-.12.38-.05.06.02-.03l-.14.15c.31-.29.18-.23-.4.18,1.26-.47,2.13-1.69,1.75-3.08-.33-1.21-1.8-2.22-3.08-1.75h0Z"/>
  </g>
</svg>