<?xml version="1.0" encoding="UTF-8"?>
<svg id="Layer_1" data-name="Layer 1" xmlns="http://www.w3.org/2000/svg" version="1.1" viewBox="0 0 200 200">
  <defs>
    <style>
      .cls-1 {
        fill: #231f20;
      }

      .cls-1, .cls-2, .cls-3 {
        stroke-width: 0px;
      }

      .cls-2 {
        fill: #f1f2f2;
      }

      .cls-3 {
        fill: #d1d3d4;
      }
    </style>
  </defs>
  <path class="cls-1" d="M100.84,198.04c-2.97-7.69-.39-16.28,1.02-24.04,1.59-8.73,2.88-17.6,1.64-26.46-.66-4.73-2.31-9.31-2.58-14.09-.18-3.2-5.19-3.22-5,0,.25,4.38,1.5,8.56,2.33,12.84s.93,8.76.62,13.15c-.6,8.75-2.92,17.24-4.02,25.93-.6,4.68-.55,9.54,1.17,14,.49,1.26,1.68,2.13,3.08,1.75,1.2-.33,2.24-1.81,1.75-3.08h0Z"/>
  <g>
    <path class="cls-3" d="M95.51,122.98c-1.62,1.19-3.58,1.91-5.51,2.58-2.91,1.01-5.94,1.94-9.04,1.8s-6.32-1.57-7.63-4.18c-1.21-2.4-.54-5.39,1.26-7.44s4.59-3.21,7.42-3.57,5.7.04,8.47.68c-3.47-2.36-6.83-5.12-8.55-8.77s-1.39-8.4,1.79-11.09c1.74-1.47,4.08-2.16,6.39-2.56,2.36-.41,4.77-.55,7.17-.43.84.04,1.72.13,2.4.59.94.63,1.25,1.78,1.46,2.84.57,2.95.84,5.95.8,8.94-.04,2.52-.33,5.14-1.75,7.28.14-3.59,2.67-6.93,6.12-8.55s7.67-1.59,11.24-.21c1.24.48,2.43,1.13,3.28,2.1.81.92,1.26,2.07,1.63,3.21,1.3,4.02,1.85,8.35.71,12.41-.39,1.4-1.01,2.8-2.15,3.78-1.87,1.61-4.7,1.76-7.25,1.53-2.71-.25-5.37-.84-7.92-1.73,3.46,1.34,7.32,3.08,8.36,6.42.88,2.83-.76,5.96-3.34,7.67s-5.9,2.19-9.06,2.08c-3.03-.11-6.31-.89-8.11-3.16-1.49-1.87-1.66-4.43-1.01-6.67s2-4.25,3.39-6.18"/>
    <path class="cls-1" d="M94.25,120.83c-1.52,1.06-3.17,1.73-4.91,2.33-1.89.66-3.83,1.31-5.82,1.59-2.61.38-6.4.06-7.87-2.52-1.56-2.73.99-5.55,3.34-6.66,3.37-1.58,7.31-1.09,10.81-.3,2.82.64,4.26-2.97,1.93-4.57-2.65-1.82-5.34-3.88-7.01-6.67-1.31-2.19-1.93-5.13-.68-7.49,1.49-2.83,5.04-3.53,7.96-3.86,1.94-.22,3.93-.29,5.87-.11.48.04.52.22.7.83.25.88.37,1.82.5,2.72.31,2.21.42,4.46.36,6.69-.06,1.98-.33,3.89-1.4,5.59l4.66,1.26c.43-6.86,9.35-8.6,14.51-6.2,1.5.7,2.26,1.69,2.78,3.23.62,1.84,1.1,3.77,1.24,5.71.2,2.65.2,7.46-2.79,8.67-1.7.69-3.8.49-5.57.26-2.16-.28-4.29-.84-6.35-1.55-1.28-.44-2.73.5-3.08,1.75-.39,1.41.48,2.58,1.75,3.08,2.34.91,6.54,2.38,6.75,5.38.25,3.49-3.84,5.29-6.66,5.73s-7.56.5-9.59-2c-2.55-3.14.71-7.54,2.54-10.09.79-1.1.19-2.78-.9-3.42-1.26-.74-2.63-.2-3.42.9-2.6,3.63-4.99,7.91-3.75,12.53s5.46,6.53,9.73,7.07,8.75.07,12.24-2.25,5.83-6.57,4.44-10.66c-1.51-4.44-6-6.43-10.05-8.01l-1.33,4.82c2.5.86,5.06,1.42,7.68,1.73,2.28.27,4.71.33,6.9-.43,5.13-1.78,6.61-7.45,6.51-12.37-.05-2.55-.52-5.11-1.28-7.54s-1.87-4.67-4.08-6.16c-3.94-2.66-9.71-3.15-14.15-1.59-4.98,1.75-8.75,6.06-9.09,11.42-.16,2.59,3.41,3.24,4.66,1.26,2.67-4.24,2.35-9.9,1.75-14.67-.29-2.3-.46-5.12-2.1-6.93-1.83-2.01-4.85-1.91-7.35-1.84-4.55.14-10.23.86-13.45,4.48-2.84,3.18-3.49,7.85-2.07,11.82,1.76,4.93,5.91,8.36,10.1,11.23l1.93-4.57c-3.98-.9-8.22-1.38-12.19-.18-3.63,1.1-6.82,3.49-8.17,7.11-1.28,3.43-.28,7.38,2.56,9.7,3.01,2.47,6.94,3.1,10.72,2.59,2.27-.31,4.44-.96,6.61-1.71s4.26-1.54,6.11-2.84c1.1-.77,1.62-2.19.9-3.42-.64-1.09-2.31-1.68-3.42-.9h0Z"/>
  </g>
  <g>
    <path class="cls-2" d="M95.56,109.51c-.71-.61-1.85,0-2.47.69-1.95,2.14-2.72,5.16-2.01,7.89.31,1.19.9,2.34,1.83,3.22,1.48,1.41,3.69,2,5.81,1.98s4.19-.58,6.21-1.19c.64-.19,1.29-.4,1.81-.79.8-.62,1.16-1.6,1.32-2.56.47-2.89-.67-5.97-2.97-7.98s-5.67-2.89-8.76-2.28"/>
    <path class="cls-1" d="M96.82,107.35c-2.43-1.66-5.08.36-6.49,2.32-1.24,1.72-1.9,3.83-2,5.94-.23,4.56,2.64,8.65,7.09,9.78,2.25.57,4.55.44,6.8,0,1.04-.2,2.06-.49,3.07-.79,1.22-.36,2.47-.78,3.4-1.69,3.09-3,2.22-8.62-.03-11.83-2.93-4.19-8.06-5.91-13-5.01-1.33.24-2.08,1.86-1.75,3.08.38,1.4,1.74,1.99,3.08,1.75.51-.09.25-.05.13-.03.18-.02.36-.04.54-.05.36-.02.72-.02,1.08,0,.13,0,.27.01.4.03.05,0,.59.07.34.03s.28.06.33.07c.22.05.44.1.65.16,1.11.3,2.28.91,3.05,1.62.93.86,1.54,1.87,1.85,2.87.36,1.17.42,2.1.15,3.1-.01.05-.17.54-.07.28s-.11.2-.14.25c-.14.24,0,.03.03-.01-.16.25-.22.22-.09.11-.12.1-.35.2-.16.11-.17.08-.36.13-.54.18-.44.14-.89.27-1.34.4-1.53.44-2.93.78-4.48.79-1.22,0-2.4-.21-3.32-.73s-1.53-1.31-1.84-2.38c-.26-.89-.27-1.02-.24-1.93,0-.17.02-.35.03-.52-.03.27,0,0,.02-.12.09-.43.21-.85.35-1.27,0,.01.15-.39.07-.19-.08.18.18-.37.21-.42.14-.25.46-.79.53-.87-.14.19.2-.24.23-.27.1-.11.28-.45.13-.19l.21-.14-.15.04.23-.07c-.3.05-.6.03-.88-.04,1.11.76,2.77.21,3.42-.9.72-1.24.22-2.66-.9-3.42h0Z"/>
  </g>
</svg>