<?xml version="1.0" encoding="utf-8"?>
<!-- Generator: Adobe Illustrator 28.3.0, SVG Export Plug-In . SVG Version: 6.00 Build 0)  -->
<svg version="1.1" id="Layer_1" xmlns="http://www.w3.org/2000/svg" xmlns:xlink="http://www.w3.org/1999/xlink" x="0px" y="0px"
	 viewBox="0 0 200 200" style="enable-background:new 0 0 200 200;" xml:space="preserve">
<style type="text/css">
	.st0{fill:#FFFFFF;}
</style>
<g>
	<path class="st0" d="M89.23,192.65c-22.1-0.95-44.16-2.58-66.15-4.91c-1.36-6.78-0.01-13.76,1.02-20.6
		c3.91-25.95,3.2-52.34,4.08-78.57c0.03-0.89,0.09-1.86,0.68-2.53c0.61-0.69,1.6-0.87,2.51-1c47.24-6.66,95.22,0.47,142.92,0.42
		c4.26,34.54,7.04,69.25,8.36,104.03c-15.87,1.7-31.86-0.66-47.76-2.1s-32.33-1.9-47.4,3.37"/>
	<g>
		<path d="M89.23,190.15c-17.23-0.74-34.44-1.89-51.62-3.47c-4.85-0.44-9.69-0.92-14.54-1.43c0.8,0.61,1.61,1.22,2.41,1.84
			c-1.5-7.86,0.62-16.02,1.66-23.8c1.05-7.91,1.71-15.86,2.14-23.83c0.86-15.97,0.83-31.96,1.3-47.94c0.03-0.98,0.05-1.96,0.09-2.93
			c0.01-0.26-0.03-0.63,0.08-0.87c0.14-0.29-0.24,0.14-0.1,0.04c0.52-0.37,1.73-0.34,2.34-0.42c1.07-0.15,2.15-0.28,3.22-0.41
			c3.88-0.47,7.78-0.85,11.67-1.16c7.95-0.63,15.93-0.93,23.91-1.02c16.02-0.17,32.02,0.54,48.02,1.33
			c18.14,0.9,36.29,1.91,54.47,1.9c-0.83-0.83-1.67-1.67-2.5-2.5c3.31,26.93,5.74,53.96,7.27,81.05c0.43,7.66,0.79,15.32,1.08,22.98
			c0.83-0.83,1.67-1.67,2.5-2.5c-25.3,2.65-50.37-4.77-75.67-2.68c-6.85,0.56-13.65,1.79-20.15,4.05c-1.28,0.44-2.12,1.71-1.75,3.08
			c0.34,1.24,1.79,2.19,3.08,1.75c23.57-8.16,48.71-2.36,72.84-0.91c7.22,0.43,14.46,0.48,21.65-0.27c1.3-0.14,2.56-1.04,2.5-2.5
			c-1.03-27.11-2.94-54.19-5.76-81.17c-0.8-7.63-1.66-15.25-2.6-22.86c-0.17-1.34-1.01-2.5-2.5-2.5
			c-16.53,0.01-33.05-0.83-49.56-1.66c-16.49-0.83-32.99-1.66-49.5-1.6c-8.22,0.03-16.45,0.27-24.65,0.84
			c-4.14,0.29-8.28,0.66-12.41,1.13c-2.09,0.24-4.17,0.5-6.25,0.79c-1.74,0.24-3.55,0.45-4.83,1.81c-1.47,1.56-1.4,3.77-1.46,5.77
			c-0.06,2.04-0.12,4.08-0.17,6.11c-0.1,4.16-0.17,8.32-0.25,12.48c-0.15,8.24-0.3,16.47-0.63,24.71
			c-0.34,8.22-0.87,16.43-1.78,24.6c-0.44,3.98-1.02,7.93-1.63,11.89c-0.63,4.11-1.24,8.27-1.16,12.44
			c0.04,2.06,0.27,4.12,0.66,6.14c0.22,1.15,1.37,1.73,2.41,1.84c17.15,1.81,34.35,3.21,51.57,4.18c4.86,0.28,9.72,0.52,14.59,0.72
			C92.44,195.29,92.44,190.29,89.23,190.15L89.23,190.15z"/>
	</g>
</g>
<g>
	<path class="st0" d="M76.1,80.58C74.67,66,74.24,51.34,74.82,36.71c25.06,1,50.18,0.7,75.21-0.92c0.74-0.05,1.66,0.01,1.97,0.68
		c0.14,0.3,0.1,0.65,0.07,0.98c-1.68,14.86-3.36,29.71-5.04,44.57c-0.02,0.2-0.05,0.4-0.16,0.57c-0.24,0.35-0.74,0.36-1.16,0.34
		c-25.47-1.51-51.04-1.34-76.49,0.51"/>
	<g>
		<path d="M78.6,80.58C77.18,66,76.75,51.34,77.32,36.71c-0.83,0.83-1.67,1.67-2.5,2.5c16,0.63,32.01,0.75,48.01,0.32
			c7.92-0.21,15.83-0.55,23.74-1.02c0.82-0.05,1.65-0.1,2.47-0.15c0.39-0.02,0.94,0.04,1.31-0.08c0.11,0,0.22,0.01,0.33,0.01
			c-0.76-1.39-1.13-1.67-1.12-0.84c-0.17,0.36-0.12,1.09-0.17,1.49c-0.06,0.5-0.11,0.99-0.17,1.49c-0.13,1.16-0.26,2.31-0.39,3.47
			c-0.45,3.96-0.9,7.92-1.34,11.88c-0.5,4.46-1.01,8.91-1.51,13.37c-0.24,2.15-0.49,4.29-0.73,6.44c-0.13,1.16-0.26,2.31-0.39,3.47
			c-0.1,0.91-0.05,2.02-0.41,2.87c0.21-0.37,0.43-0.74,0.64-1.1c-0.07,0.07-0.15,0.14-0.22,0.2c0.37-0.21,0.74-0.43,1.1-0.64
			c-0.59,0.21-2.18-0.07-3.01-0.11c-1.24-0.07-2.48-0.13-3.72-0.19c-2.57-0.12-5.13-0.23-7.7-0.32c-5.05-0.18-10.1-0.29-15.16-0.33
			c-10.02-0.09-20.05,0.08-30.07,0.52c-5.71,0.25-11.42,0.58-17.12,0.99c-1.35,0.1-2.5,1.08-2.5,2.5c0,1.28,1.15,2.6,2.5,2.5
			c13.72-0.99,27.47-1.51,41.22-1.53c6.79-0.01,13.59,0.1,20.38,0.33c3.48,0.12,6.95,0.27,10.43,0.44c1.58,0.08,3.22,0.33,4.79,0.26
			c2.1-0.09,3.25-1.42,3.5-3.41c1.69-13.51,3.06-27.07,4.59-40.6c0.17-1.5,0.55-3.12,0.47-4.63c-0.1-1.99-1.68-3.27-3.57-3.46
			c-1.46-0.15-2.99,0.09-4.45,0.18c-1.81,0.11-3.62,0.21-5.44,0.3c-6.76,0.35-13.52,0.61-20.28,0.77
			c-15.34,0.37-30.7,0.24-46.03-0.37c-1.39-0.06-2.45,1.19-2.5,2.5C71.75,51.34,72.18,66,73.6,80.58c0.13,1.34,1.06,2.5,2.5,2.5
			C77.35,83.08,78.74,81.93,78.6,80.58L78.6,80.58z"/>
	</g>
</g>
<g>
	<g>
		<path d="M89.7,48.62c-0.32-0.04,0.16,0.07,0.26,0.11c0.38,0.15-0.22-0.13,0.14,0.08c0.2,0.12,0.4,0.23,0.58,0.37
			c-0.18-0.14,0.13,0.11,0.15,0.13c0.64,0.58,1.23,1.2,1.84,1.81c1.31,1.32,2.7,2.58,4.15,3.75c3.08,2.46,6.36,4.46,9.99,6
			c1.24,0.52,2.75-0.56,3.08-1.75c0.4-1.44-0.5-2.55-1.75-3.08c-3.12-1.32-6.34-3.44-8.95-5.67c-1.4-1.2-2.69-2.51-4-3.81
			c-1.58-1.58-3.24-2.67-5.49-2.93c-1.34-0.16-2.5,1.26-2.5,2.5C87.2,47.6,88.35,48.47,89.7,48.62L89.7,48.62z"/>
	</g>
</g>
<g>
	<g>
		<path d="M96.56,52.35c-1.01,0.93-1.72,2.14-2.15,3.43c-0.44,1.33-0.45,2.73-0.19,4.09c0.08,0.2,0.17,0.4,0.25,0.6
			c0.13,0.17,0.26,0.34,0.39,0.51c0.39,0.39,0.89,0.61,1.44,0.69c1,0.13,1.96-0.33,2.49-1.19c0.52-0.84,0.59-1.89,0.32-2.83
			c-0.11-0.36-0.31-0.69-0.38-1.07c0.03,0.22,0.06,0.44,0.09,0.66c-0.02-0.14-0.02-0.28-0.01-0.42c-0.03,0.22-0.06,0.44-0.09,0.66
			c0.02-0.11,0.04-0.22,0.09-0.33c-0.08,0.2-0.17,0.4-0.25,0.6c0.03-0.06,0.06-0.12,0.1-0.18c-0.13,0.17-0.26,0.34-0.39,0.51
			c0.03-0.04,0.06-0.07,0.1-0.1c-0.17,0.13-0.34,0.26-0.51,0.39c0.03-0.02,0.05-0.03,0.08-0.05c-0.2,0.08-0.4,0.17-0.6,0.25
			c0.05-0.02,0.09-0.03,0.14-0.04c-0.22,0.03-0.44,0.06-0.66,0.09c0.04,0,0.07,0,0.11,0c-0.22-0.03-0.44-0.06-0.66-0.09
			c0.06,0.01,0.11,0.02,0.16,0.04c-0.2-0.08-0.4-0.17-0.6-0.25c0.05,0.02,0.09,0.05,0.14,0.08c-0.17-0.13-0.34-0.26-0.51-0.39
			c0.18,0.14,0.3,0.33,0.45,0.5c0.41,0.48,0.95,0.75,1.53,0.97c0.58,0.22,1.41,0.05,1.93-0.25c0.52-0.3,1.01-0.9,1.15-1.49
			c0.15-0.64,0.11-1.36-0.25-1.93c-0.13-0.17-0.26-0.34-0.39-0.51c-0.31-0.31-0.68-0.52-1.1-0.64c-0.02-0.01-0.04-0.01-0.05-0.02
			c0.2,0.08,0.4,0.17,0.6,0.25c-0.05-0.03-0.1-0.05-0.15-0.08c0.17,0.13,0.34,0.26,0.51,0.39c-0.16-0.12-0.27-0.28-0.4-0.43
			c-0.23-0.29-0.54-0.53-0.85-0.72c-0.66-0.41-1.51-0.5-2.26-0.33c-0.54,0.13-1.05,0.43-1.43,0.83c-0.38,0.4-0.68,0.93-0.81,1.46
			c-0.09,0.37-0.15,0.78-0.12,1.16c0.04,0.45,0.1,0.83,0.26,1.23c0.11,0.26,0.21,0.52,0.27,0.79c-0.03-0.22-0.06-0.44-0.09-0.66
			c0.01,0.1,0.02,0.2,0.01,0.31c0.03-0.22,0.06-0.44,0.09-0.66c-0.01,0.08-0.03,0.14-0.06,0.22c0.08-0.2,0.17-0.4,0.25-0.6
			c-0.02,0.05-0.05,0.09-0.08,0.14c1.52,0.2,3.05,0.4,4.57,0.6c-0.02-0.1-0.04-0.2-0.05-0.31c0.03,0.22,0.06,0.44,0.09,0.66
			c-0.06-0.47-0.06-0.93,0-1.4c-0.03,0.22-0.06,0.44-0.09,0.66c0.07-0.52,0.21-1.02,0.41-1.5c-0.08,0.2-0.17,0.4-0.25,0.6
			c0.19-0.43,0.42-0.83,0.7-1.21c-0.13,0.17-0.26,0.34-0.39,0.51c0.19-0.25,0.4-0.47,0.63-0.69c0.46-0.42,0.73-1.15,0.73-1.77
			c0-0.61-0.27-1.35-0.73-1.77C99.07,51.4,97.6,51.41,96.56,52.35L96.56,52.35z"/>
	</g>
</g>
<g>
	<g>
		<path d="M127.78,56.15c5.24-2.86,10.24-6.13,14.96-9.78c1.03-0.8,1.69-2.19,0.9-3.42c-0.66-1.02-2.31-1.75-3.42-0.9
			c-4.72,3.65-9.73,6.92-14.96,9.78c-1.15,0.63-1.61,2.31-0.9,3.42C125.11,56.42,126.55,56.82,127.78,56.15L127.78,56.15z"/>
	</g>
</g>
<g>
	<g>
		<path d="M131.82,54.14c0,0.11-0.01,0.22-0.03,0.32c0.03-0.22,0.06-0.44,0.09-0.66c-0.09,0.68-0.3,1.34-0.32,2.04
			c0,0.1,0,0.2,0.01,0.3c0.03,0.3,0.06,0.62,0.13,0.91c0.07,0.28,0.21,0.55,0.32,0.81c0.09,0.19,0.2,0.33,0.33,0.5
			c0.11,0.15,0.22,0.31,0.36,0.43c0.18,0.15,0.38,0.31,0.57,0.44c0.05,0.03,0.1,0.06,0.15,0.08c0.22,0.11,0.46,0.21,0.69,0.29
			c0.05,0.01,0.09,0.02,0.14,0.03c0.24,0.04,0.5,0.08,0.75,0.1c0.06,0,0.11,0,0.17,0c0.3-0.02,0.61-0.05,0.9-0.13
			c0.3-0.08,0.59-0.22,0.86-0.35c0.09-0.04,0.17-0.09,0.24-0.14c0.24-0.17,0.5-0.35,0.71-0.57c0.23-0.23,0.42-0.5,0.6-0.76
			c0.07-0.1,0.13-0.2,0.19-0.3c0.13-0.22,0.23-0.46,0.33-0.7c0.18-0.29,0.28-0.6,0.3-0.93c0.07-0.33,0.06-0.66-0.04-1
			c-0.08-0.33-0.23-0.61-0.45-0.85c-0.18-0.27-0.41-0.49-0.7-0.64c-0.58-0.31-1.28-0.46-1.93-0.25c-0.2,0.08-0.4,0.17-0.6,0.25
			c-0.38,0.22-0.67,0.52-0.9,0.9c-0.16,0.37-0.32,0.73-0.57,1.05c0.13-0.17,0.26-0.34,0.39-0.51c-0.11,0.13-0.22,0.26-0.36,0.36
			c0.17-0.13,0.34-0.26,0.51-0.39c-0.11,0.08-0.22,0.14-0.34,0.19c0.2-0.08,0.4-0.17,0.6-0.25c-0.11,0.04-0.22,0.07-0.33,0.09
			c0.22-0.03,0.44-0.06,0.66-0.09c-0.1,0.01-0.19,0.01-0.29,0.01c0.22,0.03,0.44,0.06,0.66,0.09c-0.1-0.01-0.19-0.04-0.28-0.07
			c0.2,0.08,0.4,0.17,0.6,0.25c-0.06-0.03-0.12-0.06-0.18-0.11c0.17,0.13,0.34,0.26,0.51,0.39c-0.08-0.06-0.14-0.12-0.2-0.2
			c0.13,0.17,0.26,0.34,0.39,0.51c-0.06-0.08-0.1-0.16-0.14-0.25c0.08,0.2,0.17,0.4,0.25,0.6c-0.05-0.13-0.09-0.26-0.11-0.4
			c0.03,0.22,0.06,0.44,0.09,0.66c-0.03-0.21-0.02-0.41,0-0.61c-0.03,0.22-0.06,0.44-0.09,0.66c0.1-0.71,0.3-1.39,0.32-2.11
			c0.01-0.34-0.06-0.67-0.22-0.96c-0.1-0.31-0.27-0.58-0.52-0.8c-0.23-0.24-0.49-0.42-0.8-0.52c-0.3-0.16-0.62-0.23-0.96-0.22
			c-0.65,0.03-1.32,0.24-1.77,0.73C132.1,52.87,131.84,53.46,131.82,54.14L131.82,54.14z"/>
	</g>
</g>
</svg>
