<?xml version="1.0" encoding="utf-8"?>
<!-- Generator: Adobe Illustrator 28.3.0, SVG Export Plug-In . SVG Version: 6.00 Build 0)  -->
<svg version="1.1" xmlns="http://www.w3.org/2000/svg" xmlns:xlink="http://www.w3.org/1999/xlink" x="0px" y="0px"
	 viewBox="0 0 200 200" style="enable-background:new 0 0 200 200;" xml:space="preserve">
<style type="text/css">
	.st0{fill:#FFFFFF;}
</style>
<g id="Layer_1">
	<g>
		<path class="st0" d="M29,124.2c1.1-17.8,12.4-34,27.3-43.9s33-14,50.8-14.8c7.7-0.4,15.5-0.1,23,1.8c13.5,3.6,25.1,12.8,33,24.4
			c7.9,11.6,12.1,25.3,13.9,39.2c0.9,7.5,1.2,15.3-1.2,22.5c-1.5,4.5-3.9,8.6-6.7,12.4c-10.2,13.9-25.4,24-42.2,27.9
			c-11.4,2.7-23.4,2.6-35.1,1.3c-9.9-1.1-19.9-3-29-7.2c-13.1-6-24-16.8-30.3-29.8s-7.8-28.2-4.3-42.3"/>
		<g>
			<path d="M31.5,124.2c0.8-12.9,7.3-24.8,16.3-33.8c10.1-10.1,23.3-16.2,37-19.5c7.1-1.7,14.4-2.6,21.7-3c7.9-0.4,16-0.2,23.7,1.9
				c12.8,3.6,23.7,12.5,31,23.4c8.3,12.3,12.6,27.2,13.8,41.9c0.6,7.8-0.1,15.5-3.8,22.5c-3.2,6.1-7.7,11.5-12.8,16.2
				c-9.9,9.3-22.5,15.6-35.9,18c-7.9,1.4-16,1.5-24,1c-7.9-0.5-15.8-1.6-23.5-3.6c-13.4-3.6-25.3-11-33.8-22.1
				c-8.8-11.5-13-26-12.2-40.4c0.2-3.6,0.8-7.1,1.6-10.6c0.8-3.1-4-4.5-4.8-1.3c-3.8,15.4-1.9,32,5.5,46.1
				c6.5,12.5,17.4,22.9,30.2,28.8c7.6,3.5,15.8,5.5,24.1,6.8c8.5,1.2,17.1,1.9,25.7,1.6c15.3-0.7,30.1-5.2,42.6-14.2
				c5.8-4.1,11-9,15.4-14.6c5-6.4,9.1-13.5,10.2-21.7c1.2-8.2,0.2-16.6-1.4-24.7c-1.5-7.8-3.9-15.4-7.3-22.6
				c-6.2-13.2-16.4-24.8-29.4-31.4c-14.5-7.4-31.2-7.1-47-5c-15.2,2.1-30.3,7-42.7,16.2c-11.1,8.4-20.1,20.1-23.7,33.7
				c-0.9,3.3-1.4,6.8-1.7,10.2c-0.1,1.3,1.2,2.5,2.5,2.5C30.4,126.7,31.4,125.6,31.5,124.2L31.5,124.2z"/>
		</g>
	</g>
	<g>
		<path class="st0" d="M80.8,12.7c-5.7-0.4-11.1,3.9-13.6,9.3s-2.5,11.8-1.7,17.8c0.6,4.1,1.5,8.2,3.6,11.7c2,3.3,4.9,5.9,8,8
			c7.8,5.4,16.8,8.4,26,10c4.1,0.7,8.4,1.2,12.4,0.3c4.8-1.1,9-3.9,12.9-7c6.9-5.4,13.5-11.9,16.8-20.3s2.5-19.1-3.7-25.3
			c-3.1-3.1-7.2-4.9-11.2-6.3c-16.8-6.1-34.9-8.4-52.7-6.7"/>
		<g>
			<path d="M80.8,10.2C72.9,9.7,66.6,16.1,64.1,23c-1.4,3.9-1.8,8.3-1.6,12.4c0.2,4.2,0.8,8.6,2.2,12.6c2.8,8,9.4,13.3,16.7,17.1
				c7.6,3.9,15.9,6.3,24.4,7.4c4.3,0.6,8.7,0.5,12.8-0.9c4-1.4,7.6-3.8,10.9-6.4c6.1-4.7,11.8-10.1,15.7-16.8
				c3.7-6.5,5.2-14,3.8-21.4c-0.6-3.3-2-6.6-4-9.3c-2.4-3.2-5.8-5.5-9.4-7.2c-7.8-3.6-16.4-5.8-24.9-7.3C102,1.7,93.1,1,84.2,1.4
				c-2.2,0.1-4.3,0.2-6.5,0.4c-1.3,0.1-2.5,1.1-2.5,2.5c0,1.2,1.2,2.6,2.5,2.5c16-1.5,32.2,0.2,47.6,5.1c6.4,2.1,13.6,4.4,17.1,10.6
				c2.9,5.2,2.9,11.8,1.2,17.4c-2,6.5-6.4,12-11.3,16.5c-2.6,2.4-5.3,4.6-8.2,6.6c-3.1,2.1-6.3,3.9-10,4.5c-3.8,0.7-7.8,0-11.5-0.7
				c-3.7-0.7-7.4-1.7-11-2.9c-6.7-2.3-13.7-5.9-18.4-11.3c-2.4-2.7-3.7-6.1-4.5-9.6c-0.8-3.7-1.2-7.5-1.1-11.3
				c0.2-6.3,2.7-13.5,9.1-16c1.4-0.6,2.8-0.7,4.2-0.6C84,15.4,84,10.4,80.8,10.2L80.8,10.2z"/>
		</g>
	</g>
	<g>
		<g>
			<path d="M88.1,47c2.9,4,7.8,5.2,12.5,5.8c5.1,0.8,10.3,0.7,15.1-1.8c2.9-1.5,0.3-5.8-2.5-4.3c-3.4,1.8-7.5,1.8-11.2,1.3
				c-1.9-0.3-3.8-0.6-5.7-1.2c-1.4-0.5-2.9-1.1-3.8-2.3c-0.8-1.1-2.2-1.6-3.4-0.9C87.9,44.2,87.3,45.9,88.1,47L88.1,47z"/>
		</g>
	</g>
	<g>
		<g>
			<path d="M95.7,19.2c-0.3,2-0.5,4.1-0.4,6.2c0,0.7,0.2,1.3,0.7,1.8c0.4,0.4,1.2,0.8,1.8,0.7c0.7,0,1.3-0.2,1.8-0.7
				c0.4-0.5,0.8-1.1,0.7-1.8c-0.1-1.6,0-3.3,0.2-4.9c0,0.2-0.1,0.4-0.1,0.7c0-0.2,0.1-0.4,0.1-0.6c0.1-0.3,0.1-0.7,0-1
				c0-0.3-0.1-0.6-0.3-0.9c-0.3-0.5-0.9-1-1.5-1.1c-0.6-0.1-1.4-0.1-1.9,0.2C96.3,18.1,95.8,18.6,95.7,19.2L95.7,19.2z"/>
		</g>
	</g>
	<g>
		<g>
			<path d="M109.9,22.8c0,0.1,0,0.2,0,0.3c0-0.2-0.1-0.4-0.1-0.7c0.1,0.9,0.1,1.8,0,2.7c0-0.2,0.1-0.4,0.1-0.7
				c-0.1,0.6-0.2,1.2-0.4,1.8c-0.2,0.6-0.1,1.4,0.2,1.9c0.3,0.5,0.9,1,1.5,1.1c0.6,0.1,1.4,0.1,1.9-0.2c0.6-0.4,0.9-0.9,1.2-1.5
				c0.3-1,0.5-2,0.6-3c0.1-1,0-2.1-0.2-3.1c-0.1-0.6-0.7-1.2-1.2-1.5c-0.5-0.3-1.3-0.5-1.9-0.2s-1.2,0.6-1.5,1.1
				c-0.1,0.2-0.2,0.4-0.2,0.6C109.8,21.9,109.8,22.4,109.9,22.8L109.9,22.8z"/>
		</g>
	</g>
</g>
<g id="Layer_2">
</g>
</svg>
