<?xml version="1.0" encoding="utf-8"?>
<!-- Generator: Adobe Illustrator 28.3.0, SVG Export Plug-In . SVG Version: 6.00 Build 0)  -->
<svg version="1.1" id="Layer_1" xmlns="http://www.w3.org/2000/svg" xmlns:xlink="http://www.w3.org/1999/xlink" x="0px" y="0px"
	 viewBox="0 0 200 200" style="enable-background:new 0 0 200 200;" xml:space="preserve">
<style type="text/css">
	.st0{fill:#FFFFFF;}
</style>
<g>
	<path class="st0" d="M81.11,62.38c5.53,4.33,5.19,14.14-0.62,18.08c-3.95,2.68-9.28,2.55-13.72,0.81
		c-7.57-2.96-12.99-10.12-15.27-17.92c-2.27-7.8-1.72-16.19,0-24.13c1.38-6.34,3.64-12.77,8.26-17.33
		c3.02-2.98,6.88-4.98,10.81-6.59c18.07-7.38,39.16-7.02,56.96,0.98c4.68,2.1,9.17,4.73,12.97,8.17
		c12.62,11.41,15.85,31.49,8.55,46.85c-4.59,9.65-12.57,17.2-20.59,24.26c-3.9,3.43-7.99,6.99-9.96,11.81
		c-1.16,2.85-1.5,5.95-1.82,9.01c-0.56,5.28-1.12,10.55-1.67,15.83c-0.57,5.36-1.56,11.45-6.09,14.37
		c-4.4,2.83-10.63,1.21-14.24-2.58c-3.6-3.79-5.01-9.19-5.42-14.4c-0.61-7.86,0.77-15.74,2.71-23.38c1.32-5.18,2.95-10.39,5.97-14.8
		c4.97-7.25,13.21-11.63,18.71-18.49c8.09-10.08,8.99-25.34,2.14-36.3c-1.71-2.74-3.9-5.26-6.7-6.88c-2.13-1.24-4.55-1.92-6.98-2.29
		c-8.62-1.31-18.05,1.57-23.6,8.29s-6.38,17.3-1.03,24.19"/>
	<g>
		<path d="M79.34,64.15c4.65,3.77,4.29,11.87-1.13,14.77c-3.4,1.82-7.8,1.28-11.2-0.23c-3.46-1.53-6.5-4.08-8.73-7.13
			c-5.39-7.39-6.45-16.62-5.43-25.51c0.97-8.44,3.32-18.22,10.25-23.8c3.41-2.74,7.65-4.49,11.75-5.9c4.36-1.5,8.89-2.6,13.46-3.22
			c9.04-1.22,18.35-0.68,27.19,1.59c8.74,2.25,17.74,6.07,24.27,12.47c5.34,5.24,8.65,12.19,10,19.51c1.35,7.3,0.59,15.1-2.27,21.97
			c-3.42,8.21-9.67,14.9-16.09,20.87c-3.26,3.03-6.78,5.81-9.86,9.03c-3.35,3.5-5.75,7.52-6.64,12.32
			c-0.97,5.21-1.27,10.6-1.83,15.87c-0.44,4.17-0.61,8.52-1.93,12.54c-1.01,3.08-3.19,5.97-6.67,6.18
			c-3.62,0.22-7.09-1.68-9.15-4.62c-2.4-3.42-3.32-7.65-3.6-11.76c-0.34-5.16,0.15-10.33,1.12-15.4
			c1.73-9.04,4.04-18.36,10.69-25.09c6.07-6.14,13.65-10.72,17.97-18.44c4.07-7.26,5.28-15.93,3.67-24.07
			c-1.66-8.41-6.76-17.07-15.18-20.04c-7.98-2.82-17.72-1.5-24.78,3.1c-7.01,4.57-11.32,12.53-10.8,20.96
			c0.24,3.97,1.49,7.88,3.91,11.07c0.81,1.07,2.16,1.64,3.42,0.9c1.06-0.62,1.72-2.34,0.9-3.42C78,52.53,78.47,43.46,83.3,37.51
			c5.09-6.28,13.98-8.92,21.81-7.54c4.6,0.81,8.22,3.03,10.88,6.9c2.34,3.4,3.81,7.24,4.52,11.3c1.36,7.85-0.58,16.41-5.43,22.76
			c-5.47,7.16-13.8,11.49-19.05,18.89c-2.79,3.94-4.49,8.59-5.78,13.2c-1.47,5.24-2.6,10.58-3.22,15.99
			c-1.03,9.06-0.74,20.92,6.67,27.49c3.25,2.88,7.65,4.46,11.99,3.85c4.29-0.61,7.69-3.59,9.42-7.48c1.81-4.07,2.18-8.51,2.64-12.89
			c0.57-5.38,1-10.8,1.73-16.16c0.33-2.43,0.88-4.87,2.07-7.04c1.09-1.98,2.54-3.68,4.12-5.27c3.25-3.27,6.87-6.15,10.21-9.31
			c6.86-6.48,13.16-13.82,16.65-22.7c2.99-7.63,3.55-16.11,2.07-24.13c-1.47-7.95-5.22-15.57-10.91-21.34
			c-6.79-6.89-16.19-11.17-25.39-13.75c-9.39-2.62-19.34-3.41-29.02-2.28c-4.78,0.56-9.51,1.51-14.11,2.97
			c-4.63,1.47-9.36,3.31-13.39,6.07c-8.14,5.57-11.54,14.86-13.22,24.22c-1.76,9.78-1.6,20.23,3.15,29.19
			C55.77,78.14,63.29,84.45,72.22,85c4.37,0.27,9.14-1.15,12.03-4.59c2.36-2.81,3.54-6.55,3.28-10.21
			c-0.26-3.65-1.76-7.25-4.65-9.59c-1.05-0.85-2.51-1.03-3.54,0C78.46,61.49,78.28,63.29,79.34,64.15L79.34,64.15z"/>
	</g>
</g>
<g>
	<path class="st0" d="M105.43,163.02c-4.23,0.4-9.06,1.16-11.29,4.77c-1.57,2.53-1.33,5.82-0.37,8.64c0.66,1.93,1.63,3.76,2.86,5.38
		c2.9,3.82,7.72,6.56,12.43,5.63c3.33-0.66,6.14-3.06,7.86-5.98c1.72-2.92,2.47-6.32,2.8-9.7c0.1-1.06,0.16-2.17-0.21-3.17
		c-0.4-1.06-1.24-1.88-2.16-2.54c-2.64-1.89-5.94-2.54-9.13-3.16"/>
	<g>
		<path d="M105.43,160.52c-5.2,0.5-11.48,1.58-13.91,6.9c-2.7,5.9,0.37,13.28,4.62,17.64c4.22,4.34,10.61,6.49,16.32,3.86
			c5.72-2.64,8.58-8.8,9.46-14.73c0.28-1.9,0.62-3.93,0.14-5.82c-0.45-1.79-1.7-3.17-3.14-4.24c-2.91-2.17-6.53-2.96-10.03-3.63
			c-1.32-0.26-2.7,0.37-3.08,1.75c-0.34,1.22,0.41,2.82,1.75,3.08c2.26,0.44,4.64,0.83,6.72,1.84c0.91,0.44,1.93,0.99,2.57,1.8
			c0.67,0.85,0.44,2.03,0.34,3.04c-0.44,4.31-1.86,9.16-5.63,11.72c-3.46,2.35-7.65,1.49-10.74-1.09c-3.12-2.6-5.9-7.33-5.25-11.54
			c0.69-4.53,6.17-5.19,9.86-5.54c1.34-0.13,2.5-1.06,2.5-2.5C107.93,161.76,106.78,160.38,105.43,160.52L105.43,160.52z"/>
	</g>
</g>
</svg>
