<?xml version="1.0" encoding="utf-8"?>
<!-- Generator: Adobe Illustrator 28.3.0, SVG Export Plug-In . SVG Version: 6.00 Build 0)  -->
<svg version="1.1" id="Layer_1" xmlns="http://www.w3.org/2000/svg" xmlns:xlink="http://www.w3.org/1999/xlink" x="0px" y="0px"
	 viewBox="0 0 200 400" style="enable-background:new 0 0 200 400;" xml:space="preserve">
<style type="text/css">
	.st0{fill:#DB1F26;}
	.st1{fill:#353535;}
</style>
<g>
	<path class="st0" d="M129.88,17.42c-5.21,2.27-9.27,6.49-13.18,10.62C99.99,45.65,83.03,63.45,62.46,76.35
		C46.02,86.67,27.52,93.68,12,105.34c-1.23,0.92-2.56,2.17-2.36,3.69c0.17,1.3,1.41,2.16,2.53,2.85
		c34.95,21.34,71.86,39.47,110.12,54.06c1.01,0.38,2.08,0.77,3.14,0.58c2.87-0.51,3.36-4.36,3.23-7.27
		c-2.13-46.57,10.54-92.92,7.87-139.46"/>
	<g>
		<path d="M128.62,15.26c-6.25,2.79-10.9,8.07-15.52,12.94c-4.8,5.06-9.62,10.1-14.56,15.03C88.76,53,78.5,62.38,67.12,70.28
			C55.71,78.2,43.15,84.1,30.94,90.66c-6.08,3.26-12.07,6.72-17.71,10.7c-2.59,1.83-6.32,3.99-6.09,7.67
			c0.22,3.62,4.28,5.33,6.96,6.95c25.2,15.2,51.4,28.73,78.38,40.47c6.76,2.95,13.58,5.79,20.43,8.51c1.59,0.63,3.19,1.26,4.78,1.88
			c1.84,0.72,3.75,1.68,5.7,2.06c3.35,0.66,6.03-1.2,7.13-4.31c1.03-2.92,0.57-6.17,0.49-9.19c-0.11-3.69-0.12-7.38-0.07-11.07
			c0.11-7.55,0.53-15.09,1.12-22.61c2.38-30.29,7.61-60.4,7.33-90.86c-0.03-3.69-0.15-7.38-0.36-11.07c-0.18-3.2-5.18-3.22-5,0
			c1.66,29.46-2.75,58.75-5.7,87.99c-1.47,14.54-2.58,29.15-2.39,43.77c0.02,1.77,0.06,3.53,0.13,5.3c0.05,1.53,0.22,3.09,0.06,4.62
			c-0.07,0.73-0.3,1.77-0.63,2.22c-0.16,0.22-0.42,0.36-0.44,0.36c-0.7,0.1-1.44-0.27-2.1-0.52c-6.71-2.5-13.35-5.22-19.95-7.98
			c-26.08-10.92-51.45-23.56-75.92-37.71c-3.1-1.79-6.18-3.61-9.26-5.45c-1.47-0.88-2.94-1.75-4.4-2.66
			c-0.61-0.38-1.61-0.71-1.03-1.41c0.89-1.07,2.24-1.84,3.36-2.63c1.38-0.97,2.78-1.92,4.19-2.83c2.77-1.79,5.61-3.48,8.49-5.11
			c11.66-6.59,23.93-12.1,35.29-19.23c11.52-7.23,21.99-16.01,31.82-25.37c4.89-4.66,9.64-9.46,14.32-14.32
			c4.61-4.78,8.99-9.88,13.92-14.33c2.22-1.99,4.62-3.69,7.35-4.91c1.23-0.55,1.53-2.35,0.9-3.42
			C131.3,14.89,129.86,14.71,128.62,15.26L128.62,15.26z"/>
	</g>
</g>
<g>
	<g>
		<path d="M123.14,172.26c-2.04,23.73-3.39,47.52-4.3,71.33c-0.91,23.81-1.38,47.64-1.7,71.47c-0.18,13.4-0.31,26.81-0.44,40.21
			c-0.03,3.22,4.97,3.22,5,0c0.23-23.83,0.46-47.66,0.97-71.49c0.51-23.82,1.29-47.63,2.63-71.42c0.75-13.38,1.68-26.75,2.83-40.1
			c0.12-1.35-1.23-2.5-2.5-2.5C124.19,169.76,123.25,170.91,123.14,172.26L123.14,172.26z"/>
	</g>
</g>
<g>
	<path class="st1" d="M34.93,394.94c28.34-10.09,56.35-21.11,83.96-33.05c1.26-0.54,2.6-1.1,3.95-0.89
		c1.08,0.17,2.01,0.81,2.91,1.43c18.54,12.75,38.82,22.94,60.11,30.2c-50.36,3.85-100.96,4.5-151.41,1.95"/>
	<g>
		<path d="M35.59,397.35c20.83-7.42,41.49-15.33,61.94-23.75c5.16-2.12,10.31-4.28,15.45-6.47c2.47-1.05,4.92-2.2,7.43-3.18
			c1.03-0.4,1.87-0.68,2.88-0.13c1.08,0.58,2.07,1.37,3.08,2.06c8.51,5.74,17.38,10.94,26.55,15.58
			c10.43,5.28,21.23,9.82,32.29,13.6c0.22-1.64,0.44-3.27,0.66-4.91c-19.65,1.5-39.33,2.52-59.03,3.05
			c-19.7,0.53-39.41,0.57-59.11,0.12c-11.09-0.25-22.18-0.66-33.26-1.22c-3.22-0.16-3.21,4.84,0,5c19.68,0.99,39.39,1.51,59.09,1.53
			c19.71,0.02,39.41-0.45,59.09-1.4c11.08-0.54,22.16-1.23,33.22-2.08c2.81-0.21,3.4-3.98,0.66-4.91
			c-19.66-6.73-38.42-15.96-55.76-27.42c-2.06-1.36-4.12-3.19-6.48-4.01c-2.81-0.97-5.47,0.42-8.01,1.51
			c-5.1,2.2-10.22,4.37-15.35,6.5c-10.36,4.31-20.77,8.49-31.23,12.55c-11.75,4.55-23.56,8.94-35.44,13.17
			c-1.27,0.45-2.12,1.71-1.75,3.08C32.85,396.84,34.31,397.81,35.59,397.35L35.59,397.35z"/>
	</g>
</g>
</svg>
